<?xml version="1.0" ?><svg data-name="Layer 2" id="Layer_2" viewBox="0 0 2010 2010" xmlns="http://www.w3.org/2000/svg" xmlns:xlink="http://www.w3.org/1999/xlink"><defs><style>.cls-1{fill:url(#linear-gradient);}.cls-2{fill:url(#linear-gradient-2);}.cls-3{fill:url(#linear-gradient-3);}.cls-4{fill:url(#linear-gradient-4);}.cls-5{fill:url(#linear-gradient-5);}.cls-6{fill:url(#linear-gradient-6);}.cls-7{fill:url(#linear-gradient-7);}.cls-8{fill:url(#linear-gradient-8);}.cls-9{fill:url(#linear-gradient-9);}</style><linearGradient gradientUnits="userSpaceOnUse" id="linear-gradient" x1="115.27" x2="1862.36" y1="2626.08" y2="-557.09"><stop offset="0.06" stop-color="#ff6800"/><stop offset="1" stop-color="#fff100"/></linearGradient><linearGradient id="linear-gradient-2" x1="-166.19" x2="1580.9" xlink:href="#linear-gradient" y1="2471.61" y2="-711.57"/><linearGradient id="linear-gradient-3" x1="-446.37" x2="1300.72" xlink:href="#linear-gradient" y1="2317.83" y2="-865.35"/><linearGradient id="linear-gradient-4" x1="-397.54" x2="1349.55" xlink:href="#linear-gradient" y1="2344.63" y2="-838.55"/><linearGradient id="linear-gradient-5" x1="-48.33" x2="1698.76" xlink:href="#linear-gradient" y1="2536.3" y2="-646.88"/><linearGradient id="linear-gradient-6" x1="396.72" x2="2143.81" xlink:href="#linear-gradient" y1="2780.56" y2="-402.62"/><linearGradient id="linear-gradient-7" x1="676.9" x2="2423.99" xlink:href="#linear-gradient" y1="2934.34" y2="-248.84"/><linearGradient id="linear-gradient-8" x1="628.08" x2="2375.17" xlink:href="#linear-gradient" y1="2907.54" y2="-275.64"/><linearGradient id="linear-gradient-9" x1="278.86" x2="2025.95" xlink:href="#linear-gradient" y1="2715.87" y2="-467.31"/></defs><path class="cls-1" d="M1005,1385.93a380,380,0,1,1,148.3-30A378.53,378.53,0,0,1,1005,1385.93Z"/><path class="cls-2" d="M1005,499.43a75,75,0,0,1-75-75V251a75,75,0,0,1,150,0V424.43A75,75,0,0,1,1005,499.43Z"/><path class="cls-3" d="M594.47,669.47a74.79,74.79,0,0,1-53-22L418.81,524.87A75,75,0,0,1,524.87,418.81L647.51,541.44a75,75,0,0,1-53,128Z"/><path class="cls-4" d="M424.43,1080H251a75,75,0,0,1,0-150H424.43a75,75,0,1,1,0,150Z"/><path class="cls-5" d="M471.84,1613.16a75,75,0,0,1-53-128l122.63-122.64a75,75,0,0,1,106.07,106.07L524.87,1591.19A74.74,74.74,0,0,1,471.84,1613.16Z"/><path class="cls-6" d="M1005,1834a75,75,0,0,1-75-75V1585.57a75,75,0,1,1,150,0V1759A75,75,0,0,1,1005,1834Z"/><path class="cls-7" d="M1538.16,1613.16a74.74,74.74,0,0,1-53-22L1362.5,1468.56a75,75,0,0,1,106.06-106.07l122.63,122.64a75,75,0,0,1-53,128Z"/><path class="cls-8" d="M1759,1080H1585.57a75,75,0,1,1,0-150H1759a75,75,0,0,1,0,150Z"/><path class="cls-9" d="M1415.53,669.47a75,75,0,0,1-53-128l122.63-122.63a75,75,0,0,1,106.06,106.06L1468.56,647.51A74.77,74.77,0,0,1,1415.53,669.47Z"/></svg>