<?xml version="1.0" ?><!DOCTYPE svg  PUBLIC '-//W3C//DTD SVG 1.0//EN'  'http://www.w3.org/TR/2001/REC-SVG-20010904/DTD/svg10.dtd'><svg enable-background="new 0 0 31 32.03" height="32.03" overflow="visible" viewBox="0 0 31 32.03" width="31" xml:space="preserve" xmlns="http://www.w3.org/2000/svg" xmlns:xlink="http://www.w3.org/1999/xlink"><g><g id="Google_Wallet_3_"><g id="Google_Wallet"><path d="M15.363,4.421c-0.515-0.284-1.07-0.419-1.619-0.419c-1.192,0-2.348,0.637-2.96,1.763        c-0.896,1.643-0.298,3.706,1.336,4.606c0.1,0.055,9.94,5.629,9.292,18.087c-0.096,1.871,1.332,3.468,3.193,3.565        c0.061,0.004,0.119,0.005,0.18,0.005c1.781,0,3.271-1.404,3.365-3.216C29.018,12.147,15.921,4.729,15.363,4.421z" fill="#FFE167"/><path d="M4.824,7.892C4.322,7.619,3.782,7.489,3.249,7.489c-1.15,0-2.262,0.606-2.851,1.688        c-0.862,1.582-0.279,3.524,1.303,4.387c0.075,0.041,7.55,4.123,7.502,11.341c-0.012,1.802,1.439,3.132,3.24,3.132h0.022        c1.792,0,3.25-1.304,3.262-3.098C15.801,13.861,5.272,8.136,4.824,7.892z" fill="#51AED9"/><path d="M27.941,1.84C27.332,0.67,26.141,0,24.908,0c-0.531,0-1.072,0.125-1.576,0.388        c-1.674,0.871-2.324,2.936-1.453,4.608c0.055,0.103,5.248,10.333-0.203,22.189c-0.789,1.715-0.037,3.743,1.678,4.531        c0.463,0.213,0.947,0.313,1.426,0.313c1.293,0,2.529-0.738,3.105-1.991C34.719,15.176,28.221,2.378,27.941,1.84z" fill="#31D382"/><path d="M15.802,5.855c-0.566-1.154-1.725-1.825-2.93-1.825        c-0.482,0-0.973,0.108-1.435,0.335C9.819,5.159,9.152,7.113,9.946,8.73c0.042,0.085,4.083,8.715-0.013,14.545        c-1.035,1.474-0.68,3.508,0.794,4.544c0.57,0.401,1.225,0.593,1.873,0.593c1.026,0,2.037-0.483,2.672-1.387        C21.627,17.978,16.043,6.347,15.802,5.855z" fill="#DB3A4D"/></g></g></g></svg>